<svg xmlns="http://www.w3.org/2000/svg" width="180" height="180" viewBox="0 0 180 180" role="img" aria-label="QR check-in">
  <rect width="180" height="180" fill="#fff8ef"/>
  <rect x="12" y="12" width="42" height="42" fill="#252628"/>
  <rect x="20" y="20" width="26" height="26" fill="#fff8ef"/>
  <rect x="27" y="27" width="12" height="12" fill="#252628"/>
  <rect x="126" y="12" width="42" height="42" fill="#252628"/>
  <rect x="134" y="20" width="26" height="26" fill="#fff8ef"/>
  <rect x="141" y="27" width="12" height="12" fill="#252628"/>
  <rect x="12" y="126" width="42" height="42" fill="#252628"/>
  <rect x="20" y="134" width="26" height="26" fill="#fff8ef"/>
  <rect x="27" y="141" width="12" height="12" fill="#252628"/>
  <path fill="#252628" d="M72 18h12v12H72zM96 18h12v12H96zM72 42h24v12H72zM108 42h12v12h-12zM66 66h12v12H66zM90 66h12v12H90zM114 66h24v12h-24zM150 66h12v12h-12zM66 90h24v12H66zM102 90h12v12h-12zM126 90h12v12h-12zM150 90h12v12h-12zM78 114h12v12H78zM102 114h36v12h-36zM150 114h12v12h-12zM66 138h12v12H66zM90 138h12v12H90zM114 138h12v12h-12zM138 138h24v12h-24zM66 162h36v6H66zM114 162h12v6h-12zM138 162h30v6h-30z"/>
  <text x="90" y="86" text-anchor="middle" font-family="Arial, sans-serif" font-size="8" font-weight="700" fill="#801e2a">NL VH</text>
</svg>
